<svg width="435" height="140" viewBox="0 0 435 140" fill="none" xmlns="http://www.w3.org/2000/svg">
<path d="M114.312 50.306C114.312 78.0892 91.4172 100.612 63.1754 100.612C34.9336 100.612 12.0391 78.0892 12.0391 50.306C12.0391 22.5228 34.9336 0 63.1754 0C91.4172 0 114.312 22.5228 114.312 50.306ZM52.9481 50.306C52.9481 55.8627 57.5271 60.3672 63.1754 60.3672C68.8238 60.3672 73.4027 55.8627 73.4027 50.306C73.4027 44.7494 68.8238 40.2448 63.1754 40.2448C57.5271 40.2448 52.9481 44.7494 52.9481 50.306Z" fill="#3C3C3C"/>
<path d="M63.1754 1.31529C63.1754 0.588934 63.7743 -0.00169122 64.5124 0.0172908C75.0165 0.287431 85.1935 3.7356 93.6489 9.90842C102.463 16.3428 108.938 25.3961 112.118 35.7303C115.298 46.0644 115.014 57.1308 111.308 67.2938C107.602 77.4569 100.67 86.1771 91.5372 92.1656C82.4045 98.1541 71.5556 101.093 60.5941 100.548C49.6326 100.003 39.1403 96.0029 30.6679 89.139C22.1956 82.2752 16.1929 72.9118 13.5471 62.4329C11.0089 52.3801 11.6895 41.8123 15.4777 32.1704C15.7439 31.4929 16.5284 31.1764 17.2099 31.4559L52.5016 45.9288C53.1831 46.2083 53.496 46.9773 53.3031 47.6784C52.8506 49.3239 52.8285 51.0631 53.2498 52.7315C53.7789 54.8272 54.9795 56.6999 56.6739 58.0727C58.3684 59.4455 60.4669 60.2455 62.6592 60.3545C64.8515 60.4635 67.0213 59.8757 68.8478 58.678C70.6743 57.4803 72.0607 55.7363 72.8019 53.7037C73.5432 51.6711 73.6 49.4578 72.964 47.3909C72.328 45.3241 71.0329 43.5134 69.2701 42.2266C67.8669 41.2022 66.2266 40.5529 64.5086 40.3307C63.7765 40.2361 63.1754 39.6561 63.1754 38.9297V1.31529Z" fill="#FF0000"/>
<g filter="url(#filter0_d_817_68)">
<ellipse cx="63.1424" cy="50.2736" rx="27.5019" ry="27.0553" fill="white"/>
</g>
<path d="M57.4791 53.152C57.7137 53.6213 57.8311 54.16 57.8311 54.768C57.8311 55.408 57.6924 55.9893 57.4151 56.512C57.1377 57.0133 56.7324 57.408 56.1991 57.696C55.6657 57.984 55.0364 58.128 54.3111 58.128C53.5964 58.128 52.9617 57.9893 52.4071 57.712C51.8524 57.424 51.4364 57.008 51.1591 56.464C50.8817 55.9627 50.7431 55.392 50.7431 54.752C50.7431 54.176 50.8657 53.632 51.1111 53.12C51.3244 52.6827 51.6284 52.352 52.0231 52.128C52.0764 52.096 52.0817 52.0587 52.0391 52.016C51.7724 51.824 51.5324 51.5573 51.3191 51.216C51.0417 50.768 50.9031 50.272 50.9031 49.728C50.9031 49.056 51.1004 48.4533 51.4951 47.92C51.7831 47.504 52.1724 47.184 52.6631 46.96C53.1537 46.7253 53.7031 46.608 54.3111 46.608C54.9404 46.608 55.4897 46.7253 55.9591 46.96C56.4391 47.184 56.8231 47.504 57.1111 47.92C57.4844 48.464 57.6711 49.0667 57.6711 49.728C57.6711 50.3147 57.5271 50.8267 57.2391 51.264C57.0364 51.5627 56.8017 51.808 56.5351 52C56.4924 52.0427 56.4924 52.08 56.5351 52.112C56.9404 52.3467 57.2551 52.6933 57.4791 53.152ZM52.9351 49.024C52.8071 49.3013 52.7431 49.5467 52.7431 49.76C52.7431 50.1227 52.8337 50.448 53.0151 50.736C53.2711 51.1733 53.6977 51.392 54.2951 51.392C54.8711 51.392 55.3084 51.168 55.6071 50.72C55.7671 50.4853 55.8471 50.16 55.8471 49.744C55.8471 49.5093 55.7884 49.264 55.6711 49.008C55.5324 48.7627 55.3457 48.5707 55.1111 48.432C54.8764 48.2827 54.5991 48.208 54.2791 48.208C53.9804 48.208 53.7137 48.2827 53.4791 48.432C53.2444 48.5707 53.0631 48.768 52.9351 49.024ZM55.6231 55.872C55.8471 55.5627 55.9591 55.1413 55.9591 54.608C55.9591 54.1173 55.8737 53.7333 55.7031 53.456C55.4364 52.9653 54.9671 52.72 54.2951 52.72C53.6657 52.72 53.2071 52.9547 52.9191 53.424C52.7377 53.712 52.6471 54.112 52.6471 54.624C52.6471 55.1147 52.7431 55.5147 52.9351 55.824C53.2231 56.2933 53.6817 56.528 54.3111 56.528C54.9084 56.528 55.3457 56.3093 55.6231 55.872ZM60.8647 46.848C60.95 46.816 61.03 46.8 61.1047 46.8H62.6407C62.694 46.8 62.7367 46.8213 62.7687 46.864C62.8114 46.896 62.8327 46.9387 62.8327 46.992V57.808C62.8327 57.8613 62.8114 57.9093 62.7687 57.952C62.7367 57.984 62.694 58 62.6407 58H61.1687C61.1154 58 61.0674 57.984 61.0247 57.952C60.9927 57.9093 60.9767 57.8613 60.9767 57.808V48.72C60.9767 48.6987 60.966 48.6827 60.9447 48.672C60.9234 48.6507 60.902 48.6453 60.8807 48.656L59.2807 49.152C59.2594 49.1627 59.2327 49.168 59.2007 49.168C59.158 49.168 59.1207 49.152 59.0887 49.12C59.0674 49.088 59.0567 49.0453 59.0567 48.992L59.0087 47.936C59.0087 47.8293 59.0514 47.7547 59.1367 47.712L60.8647 46.848ZM67.5773 51.536C67.1293 51.536 66.7133 51.4293 66.3293 51.216C65.956 50.992 65.6573 50.6933 65.4333 50.32C65.22 49.9467 65.1133 49.536 65.1133 49.088C65.1133 48.6507 65.22 48.2453 65.4333 47.872C65.6573 47.4987 65.956 47.2053 66.3293 46.992C66.7133 46.768 67.1293 46.656 67.5773 46.656C68.0146 46.656 68.42 46.768 68.7933 46.992C69.1773 47.2053 69.476 47.4987 69.6893 47.872C69.9133 48.2453 70.0253 48.6507 70.0253 49.088C70.0253 49.536 69.9133 49.9467 69.6893 50.32C69.476 50.6933 69.1826 50.992 68.8093 51.216C68.436 51.4293 68.0253 51.536 67.5773 51.536ZM67.0493 58C66.9746 58 66.9266 57.9787 66.9053 57.936C66.884 57.8933 66.8893 57.84 66.9213 57.776L72.9533 46.928C73.0066 46.8427 73.0866 46.8 73.1933 46.8H74.1213C74.196 46.8 74.244 46.8213 74.2653 46.864C74.2866 46.9067 74.2813 46.96 74.2493 47.024L68.2333 57.872C68.18 57.9573 68.1 58 67.9933 58H67.0493ZM67.5773 50.416C67.94 50.416 68.244 50.288 68.4893 50.032C68.7453 49.776 68.8733 49.4613 68.8733 49.088C68.8733 48.7253 68.7453 48.416 68.4893 48.16C68.244 47.904 67.94 47.776 67.5773 47.776C67.204 47.776 66.8893 47.904 66.6333 48.16C66.3773 48.416 66.2493 48.7253 66.2493 49.088C66.2493 49.4613 66.3773 49.776 66.6333 50.032C66.8893 50.288 67.204 50.416 67.5773 50.416ZM73.7373 58.144C73.2893 58.144 72.8733 58.0373 72.4893 57.824C72.116 57.6 71.8173 57.3013 71.5933 56.928C71.38 56.5547 71.2733 56.144 71.2733 55.696C71.2733 55.2587 71.38 54.8533 71.5933 54.48C71.8173 54.1067 72.116 53.8133 72.4893 53.6C72.8733 53.376 73.2893 53.264 73.7373 53.264C74.1746 53.264 74.58 53.376 74.9533 53.6C75.3373 53.8133 75.636 54.1067 75.8493 54.48C76.0733 54.8533 76.1853 55.2587 76.1853 55.696C76.1853 56.144 76.0733 56.5547 75.8493 56.928C75.636 57.3013 75.3426 57.6 74.9693 57.824C74.596 58.0373 74.1853 58.144 73.7373 58.144ZM73.7373 57.024C74.1 57.024 74.4093 56.896 74.6653 56.64C74.9213 56.384 75.0493 56.0693 75.0493 55.696C75.0493 55.3333 74.9213 55.024 74.6653 54.768C74.4093 54.512 74.1 54.384 73.7373 54.384C73.364 54.384 73.0493 54.512 72.7933 54.768C72.5373 55.024 72.4093 55.3333 72.4093 55.696C72.4093 56.0693 72.5373 56.384 72.7933 56.64C73.0493 56.896 73.364 57.024 73.7373 57.024Z" fill="black"/>
<path d="M48.6436 112.312C48.6903 112.237 48.7556 112.2 48.8396 112.2H50.1276C50.1743 112.2 50.2116 112.219 50.2396 112.256C50.277 112.284 50.2956 112.321 50.2956 112.368V121.832C50.2956 121.879 50.277 121.921 50.2396 121.958C50.2116 121.986 50.1743 122 50.1276 122H48.8396C48.793 122 48.751 121.986 48.7136 121.958C48.6856 121.921 48.6716 121.879 48.6716 121.832V115.154C48.6716 115.126 48.6576 115.107 48.6296 115.098C48.611 115.089 48.597 115.098 48.5876 115.126L46.8376 117.814C46.791 117.889 46.7256 117.926 46.6416 117.926H45.9976C45.9136 117.926 45.8483 117.889 45.8016 117.814L44.0376 115.14C44.0283 115.112 44.0096 115.103 43.9816 115.112C43.963 115.121 43.9536 115.14 43.9536 115.168V121.832C43.9536 121.879 43.935 121.921 43.8976 121.958C43.8696 121.986 43.8323 122 43.7856 122H42.4976C42.451 122 42.409 121.986 42.3716 121.958C42.3436 121.921 42.3296 121.879 42.3296 121.832V112.368C42.3296 112.321 42.3436 112.284 42.3716 112.256C42.409 112.219 42.451 112.2 42.4976 112.2H43.7856C43.8696 112.2 43.935 112.237 43.9816 112.312L46.2636 115.77C46.2823 115.789 46.301 115.798 46.3196 115.798C46.3383 115.798 46.3523 115.789 46.3616 115.77L48.6436 112.312ZM54.9134 114.734C55.5014 114.734 56.0194 114.837 56.4674 115.042C56.9154 115.247 57.2608 115.532 57.5034 115.896C57.7461 116.251 57.8674 116.657 57.8674 117.114V121.832C57.8674 121.879 57.8488 121.921 57.8114 121.958C57.7834 121.986 57.7461 122 57.6994 122H56.4114C56.3648 122 56.3228 121.986 56.2854 121.958C56.2574 121.921 56.2434 121.879 56.2434 121.832V121.384C56.2434 121.356 56.2341 121.342 56.2154 121.342C56.1968 121.333 56.1781 121.337 56.1594 121.356C55.7021 121.86 55.0394 122.112 54.1714 122.112C53.4714 122.112 52.8928 121.935 52.4354 121.58C51.9874 121.225 51.7634 120.698 51.7634 119.998C51.7634 119.27 52.0154 118.705 52.5194 118.304C53.0328 117.893 53.7514 117.688 54.6754 117.688H56.1734C56.2201 117.688 56.2434 117.665 56.2434 117.618V117.282C56.2434 116.918 56.1361 116.638 55.9214 116.442C55.7068 116.237 55.3848 116.134 54.9554 116.134C54.6008 116.134 54.3114 116.199 54.0874 116.33C53.8728 116.451 53.7374 116.624 53.6814 116.848C53.6534 116.96 53.5881 117.007 53.4854 116.988L52.1274 116.82C52.0808 116.811 52.0388 116.797 52.0014 116.778C51.9734 116.75 51.9641 116.717 51.9734 116.68C52.0481 116.111 52.3514 115.644 52.8834 115.28C53.4248 114.916 54.1014 114.734 54.9134 114.734ZM54.5774 120.824C55.0348 120.824 55.4268 120.703 55.7534 120.46C56.0801 120.217 56.2434 119.909 56.2434 119.536V118.878C56.2434 118.831 56.2201 118.808 56.1734 118.808H54.9974C54.5028 118.808 54.1108 118.901 53.8214 119.088C53.5414 119.275 53.4014 119.541 53.4014 119.886C53.4014 120.185 53.5088 120.418 53.7234 120.586C53.9474 120.745 54.2321 120.824 54.5774 120.824ZM62.4799 122.112C61.7612 122.112 61.1405 121.93 60.6179 121.566C60.0952 121.193 59.7312 120.693 59.5259 120.068C59.3765 119.648 59.3019 119.088 59.3019 118.388C59.3019 117.716 59.3765 117.165 59.5259 116.736C59.7219 116.12 60.0812 115.635 60.6039 115.28C61.1359 114.916 61.7612 114.734 62.4799 114.734C63.2079 114.734 63.8425 114.916 64.3839 115.28C64.9252 115.644 65.2845 116.101 65.4619 116.652C65.5085 116.801 65.5412 116.951 65.5599 117.1V117.128C65.5599 117.221 65.5085 117.277 65.4059 117.296L64.1459 117.478H64.1179C64.0339 117.478 63.9779 117.431 63.9499 117.338C63.9499 117.291 63.9452 117.254 63.9359 117.226C63.9172 117.151 63.8985 117.086 63.8799 117.03C63.7959 116.769 63.6279 116.554 63.3759 116.386C63.1239 116.218 62.8252 116.134 62.4799 116.134C62.1252 116.134 61.8219 116.227 61.5699 116.414C61.3272 116.591 61.1639 116.839 61.0799 117.156C60.9865 117.455 60.9399 117.87 60.9399 118.402C60.9399 118.915 60.9819 119.331 61.0659 119.648C61.1592 119.975 61.3272 120.236 61.5699 120.432C61.8125 120.619 62.1159 120.712 62.4799 120.712C62.8345 120.712 63.1379 120.623 63.3899 120.446C63.6512 120.259 63.8192 120.012 63.8939 119.704C63.9032 119.685 63.9079 119.662 63.9079 119.634C63.9172 119.625 63.9219 119.611 63.9219 119.592C63.9499 119.48 64.0152 119.433 64.1179 119.452L65.3779 119.648C65.4245 119.657 65.4619 119.681 65.4899 119.718C65.5272 119.746 65.5412 119.788 65.5319 119.844C65.5039 119.993 65.4805 120.101 65.4619 120.166C65.2845 120.763 64.9252 121.239 64.3839 121.594C63.8425 121.939 63.2079 122.112 62.4799 122.112ZM72.901 117.618C72.9384 117.851 72.957 118.113 72.957 118.402L72.943 118.836C72.943 118.948 72.887 119.004 72.775 119.004H68.393C68.3464 119.004 68.323 119.027 68.323 119.074C68.351 119.382 68.393 119.592 68.449 119.704C68.673 120.376 69.219 120.717 70.087 120.726C70.7217 120.726 71.2257 120.465 71.599 119.942C71.6364 119.886 71.683 119.858 71.739 119.858C71.7764 119.858 71.809 119.872 71.837 119.9L72.705 120.614C72.789 120.679 72.803 120.754 72.747 120.838C72.4577 121.249 72.0704 121.566 71.585 121.79C71.109 122.014 70.577 122.126 69.989 122.126C69.261 122.126 68.6404 121.963 68.127 121.636C67.623 121.309 67.2544 120.852 67.021 120.264C66.8064 119.76 66.699 119.06 66.699 118.164C66.699 117.623 66.755 117.184 66.867 116.848C67.0537 116.195 67.4037 115.681 67.917 115.308C68.4397 114.925 69.065 114.734 69.793 114.734C71.6317 114.734 72.6677 115.695 72.901 117.618ZM69.793 116.134C69.4477 116.134 69.1584 116.223 68.925 116.4C68.701 116.568 68.5424 116.806 68.449 117.114C68.393 117.273 68.3557 117.478 68.337 117.73C68.3184 117.777 68.337 117.8 68.393 117.8H71.235C71.2817 117.8 71.305 117.777 71.305 117.73C71.2864 117.497 71.2584 117.319 71.221 117.198C71.137 116.862 70.969 116.601 70.717 116.414C70.4744 116.227 70.1664 116.134 69.793 116.134ZM75.3652 113.866C75.0759 113.866 74.8379 113.773 74.6512 113.586C74.4646 113.399 74.3712 113.161 74.3712 112.872C74.3712 112.583 74.4646 112.345 74.6512 112.158C74.8379 111.971 75.0759 111.878 75.3652 111.878C75.6546 111.878 75.8926 111.971 76.0792 112.158C76.2659 112.345 76.3592 112.583 76.3592 112.872C76.3592 113.161 76.2659 113.399 76.0792 113.586C75.8926 113.773 75.6546 113.866 75.3652 113.866ZM74.6932 122C74.6466 122 74.6046 121.986 74.5672 121.958C74.5392 121.921 74.5252 121.879 74.5252 121.832V115C74.5252 114.953 74.5392 114.916 74.5672 114.888C74.6046 114.851 74.6466 114.832 74.6932 114.832H75.9812C76.0279 114.832 76.0652 114.851 76.0932 114.888C76.1306 114.916 76.1492 114.953 76.1492 115V121.832C76.1492 121.879 76.1306 121.921 76.0932 121.958C76.0652 121.986 76.0279 122 75.9812 122H74.6932ZM81.0476 122.112C80.3103 122.112 79.6756 121.925 79.1436 121.552C78.6209 121.179 78.2523 120.661 78.0376 119.998C77.8789 119.494 77.7996 118.962 77.7996 118.402C77.7996 117.805 77.8743 117.273 78.0236 116.806C78.2383 116.153 78.6116 115.644 79.1436 115.28C79.6756 114.916 80.3149 114.734 81.0616 114.734C81.7709 114.734 82.3823 114.916 82.8956 115.28C83.4183 115.644 83.7869 116.148 84.0016 116.792C84.1696 117.24 84.2536 117.772 84.2536 118.388C84.2536 118.976 84.1743 119.508 84.0156 119.984C83.8009 120.647 83.4323 121.169 82.9096 121.552C82.3869 121.925 81.7663 122.112 81.0476 122.112ZM81.0476 120.712C81.3929 120.712 81.6869 120.614 81.9296 120.418C82.1816 120.222 82.3636 119.947 82.4756 119.592C82.5689 119.284 82.6156 118.892 82.6156 118.416C82.6156 117.912 82.5689 117.52 82.4756 117.24C82.3729 116.885 82.1956 116.615 81.9436 116.428C81.6916 116.232 81.3836 116.134 81.0196 116.134C80.6743 116.134 80.3756 116.232 80.1236 116.428C79.8716 116.615 79.6896 116.885 79.5776 117.24C79.4843 117.567 79.4376 117.959 79.4376 118.416C79.4376 118.873 79.4843 119.265 79.5776 119.592C79.6803 119.947 79.8576 120.222 80.1096 120.418C80.3709 120.614 80.6836 120.712 81.0476 120.712ZM80.2916 113.95C80.2263 113.95 80.1843 113.931 80.1656 113.894C80.1469 113.857 80.1516 113.81 80.1796 113.754L80.9496 112.312C80.9869 112.237 81.0569 112.2 81.1596 112.2H82.2656C82.3309 112.2 82.3729 112.223 82.3916 112.27C82.4196 112.307 82.4149 112.354 82.3776 112.41L81.4116 113.838C81.3649 113.913 81.2996 113.95 81.2156 113.95H80.2916Z" fill="white"/>
<path d="M268.723 50.306C268.723 78.0892 245.829 100.612 217.587 100.612C189.345 100.612 166.451 78.0892 166.451 50.306C166.451 22.5228 189.345 0 217.587 0C245.829 0 268.723 22.5228 268.723 50.306ZM207.36 50.306C207.36 55.8627 211.939 60.3672 217.587 60.3672C223.235 60.3672 227.814 55.8627 227.814 50.306C227.814 44.7494 223.235 40.2448 217.587 40.2448C211.939 40.2448 207.36 44.7494 207.36 50.306Z" fill="#3F3F3F"/>
<path d="M217.587 1.3153C217.587 0.588939 218.186 -0.00168653 218.924 0.0172906C230.671 0.319302 241.969 4.59383 250.904 12.1427C259.839 19.6915 265.84 30.0335 267.918 41.4111C268.048 42.126 267.545 42.7975 266.815 42.9072L229.019 48.588C228.289 48.6977 227.615 48.2007 227.41 47.5031C226.859 45.6345 225.765 43.9533 224.25 42.6734C222.736 41.3936 220.881 40.5843 218.92 40.3307C218.188 40.2361 217.587 39.6561 217.587 38.9297L217.587 1.3153Z" fill="#599052"/>
<g filter="url(#filter1_d_817_68)">
<ellipse cx="217.554" cy="50.2736" rx="27.5019" ry="27.0553" fill="white"/>
</g>
<path d="M204.319 56.304C204.298 56.3253 204.287 56.3467 204.287 56.368C204.298 56.3893 204.319 56.4 204.351 56.4H208.911C208.964 56.4 209.007 56.4213 209.039 56.464C209.082 56.496 209.103 56.5387 209.103 56.592V57.808C209.103 57.8613 209.082 57.9093 209.039 57.952C209.007 57.984 208.964 58 208.911 58H202.031C201.978 58 201.93 57.984 201.887 57.952C201.855 57.9093 201.839 57.8613 201.839 57.808V56.656C201.839 56.56 201.871 56.48 201.935 56.416C202.746 55.552 203.684 54.4907 204.751 53.232L205.503 52.352C206.484 51.2107 206.975 50.3467 206.975 49.76C206.975 49.3227 206.82 48.9653 206.511 48.688C206.202 48.4107 205.802 48.272 205.311 48.272C204.82 48.272 204.42 48.4107 204.111 48.688C203.812 48.9653 203.663 49.3333 203.663 49.792V50.208C203.663 50.2613 203.642 50.3093 203.599 50.352C203.567 50.384 203.524 50.4 203.471 50.4H201.983C201.93 50.4 201.882 50.384 201.839 50.352C201.807 50.3093 201.791 50.2613 201.791 50.208V49.52C201.812 48.944 201.978 48.4427 202.287 48.016C202.596 47.5893 203.012 47.2587 203.535 47.024C204.068 46.7893 204.66 46.672 205.311 46.672C206.026 46.672 206.65 46.8053 207.183 47.072C207.716 47.3387 208.127 47.7067 208.415 48.176C208.703 48.6347 208.847 49.152 208.847 49.728C208.847 50.6027 208.383 51.6107 207.455 52.752C206.943 53.392 206.1 54.352 204.927 55.632L204.319 56.304ZM213.132 56.304C213.11 56.3253 213.1 56.3467 213.1 56.368C213.11 56.3893 213.132 56.4 213.164 56.4H217.724C217.777 56.4 217.82 56.4213 217.852 56.464C217.894 56.496 217.916 56.5387 217.916 56.592V57.808C217.916 57.8613 217.894 57.9093 217.852 57.952C217.82 57.984 217.777 58 217.724 58H210.844C210.79 58 210.742 57.984 210.7 57.952C210.668 57.9093 210.652 57.8613 210.652 57.808V56.656C210.652 56.56 210.684 56.48 210.748 56.416C211.558 55.552 212.497 54.4907 213.564 53.232L214.316 52.352C215.297 51.2107 215.788 50.3467 215.788 49.76C215.788 49.3227 215.633 48.9653 215.324 48.688C215.014 48.4107 214.614 48.272 214.124 48.272C213.633 48.272 213.233 48.4107 212.924 48.688C212.625 48.9653 212.476 49.3333 212.476 49.792V50.208C212.476 50.2613 212.454 50.3093 212.412 50.352C212.38 50.384 212.337 50.4 212.284 50.4H210.796C210.742 50.4 210.694 50.384 210.652 50.352C210.62 50.3093 210.604 50.2613 210.604 50.208V49.52C210.625 48.944 210.79 48.4427 211.1 48.016C211.409 47.5893 211.825 47.2587 212.348 47.024C212.881 46.7893 213.473 46.672 214.124 46.672C214.838 46.672 215.462 46.8053 215.996 47.072C216.529 47.3387 216.94 47.7067 217.228 48.176C217.516 48.6347 217.66 49.152 217.66 49.728C217.66 50.6027 217.196 51.6107 216.268 52.752C215.756 53.392 214.913 54.352 213.74 55.632L213.132 56.304ZM222.296 51.536C221.848 51.536 221.432 51.4293 221.048 51.216C220.675 50.992 220.376 50.6933 220.152 50.32C219.939 49.9467 219.832 49.536 219.832 49.088C219.832 48.6507 219.939 48.2453 220.152 47.872C220.376 47.4987 220.675 47.2053 221.048 46.992C221.432 46.768 221.848 46.656 222.296 46.656C222.733 46.656 223.139 46.768 223.512 46.992C223.896 47.2053 224.195 47.4987 224.408 47.872C224.632 48.2453 224.744 48.6507 224.744 49.088C224.744 49.536 224.632 49.9467 224.408 50.32C224.195 50.6933 223.901 50.992 223.528 51.216C223.155 51.4293 222.744 51.536 222.296 51.536ZM221.768 58C221.693 58 221.645 57.9787 221.624 57.936C221.603 57.8933 221.608 57.84 221.64 57.776L227.672 46.928C227.725 46.8427 227.805 46.8 227.912 46.8H228.84C228.915 46.8 228.963 46.8213 228.984 46.864C229.005 46.9067 229 46.96 228.968 47.024L222.952 57.872C222.899 57.9573 222.819 58 222.712 58H221.768ZM222.296 50.416C222.659 50.416 222.963 50.288 223.208 50.032C223.464 49.776 223.592 49.4613 223.592 49.088C223.592 48.7253 223.464 48.416 223.208 48.16C222.963 47.904 222.659 47.776 222.296 47.776C221.923 47.776 221.608 47.904 221.352 48.16C221.096 48.416 220.968 48.7253 220.968 49.088C220.968 49.4613 221.096 49.776 221.352 50.032C221.608 50.288 221.923 50.416 222.296 50.416ZM228.456 58.144C228.008 58.144 227.592 58.0373 227.208 57.824C226.835 57.6 226.536 57.3013 226.312 56.928C226.099 56.5547 225.992 56.144 225.992 55.696C225.992 55.2587 226.099 54.8533 226.312 54.48C226.536 54.1067 226.835 53.8133 227.208 53.6C227.592 53.376 228.008 53.264 228.456 53.264C228.893 53.264 229.299 53.376 229.672 53.6C230.056 53.8133 230.355 54.1067 230.568 54.48C230.792 54.8533 230.904 55.2587 230.904 55.696C230.904 56.144 230.792 56.5547 230.568 56.928C230.355 57.3013 230.061 57.6 229.688 57.824C229.315 58.0373 228.904 58.144 228.456 58.144ZM228.456 57.024C228.819 57.024 229.128 56.896 229.384 56.64C229.64 56.384 229.768 56.0693 229.768 55.696C229.768 55.3333 229.64 55.024 229.384 54.768C229.128 54.512 228.819 54.384 228.456 54.384C228.083 54.384 227.768 54.512 227.512 54.768C227.256 55.024 227.128 55.3333 227.128 55.696C227.128 56.0693 227.256 56.384 227.512 56.64C227.768 56.896 228.083 57.024 228.456 57.024Z" fill="black"/>
<path d="M194.938 112.186C195.526 112.186 196.044 112.307 196.492 112.55C196.94 112.793 197.286 113.138 197.528 113.586C197.78 114.025 197.906 114.533 197.906 115.112C197.906 115.681 197.78 116.185 197.528 116.624C197.276 117.063 196.917 117.403 196.45 117.646C195.993 117.879 195.461 117.996 194.854 117.996H192.614C192.568 117.996 192.544 118.019 192.544 118.066V121.832C192.544 121.879 192.526 121.921 192.488 121.958C192.46 121.986 192.423 122 192.376 122H191.088C191.042 122 191 121.986 190.962 121.958C190.934 121.921 190.92 121.879 190.92 121.832V112.354C190.92 112.307 190.934 112.27 190.962 112.242C191 112.205 191.042 112.186 191.088 112.186H194.938ZM194.7 116.68C195.176 116.68 195.559 116.54 195.848 116.26C196.138 115.98 196.282 115.611 196.282 115.154C196.282 114.687 196.138 114.309 195.848 114.02C195.559 113.731 195.176 113.586 194.7 113.586H192.614C192.568 113.586 192.544 113.609 192.544 113.656V116.61C192.544 116.657 192.568 116.68 192.614 116.68H194.7ZM201.825 114.734C202.413 114.734 202.931 114.837 203.379 115.042C203.827 115.247 204.172 115.532 204.415 115.896C204.657 116.251 204.779 116.657 204.779 117.114V121.832C204.779 121.879 204.76 121.921 204.723 121.958C204.695 121.986 204.657 122 204.611 122H203.323C203.276 122 203.234 121.986 203.197 121.958C203.169 121.921 203.155 121.879 203.155 121.832V121.384C203.155 121.356 203.145 121.342 203.127 121.342C203.108 121.333 203.089 121.337 203.071 121.356C202.613 121.86 201.951 122.112 201.083 122.112C200.383 122.112 199.804 121.935 199.347 121.58C198.899 121.225 198.675 120.698 198.675 119.998C198.675 119.27 198.927 118.705 199.431 118.304C199.944 117.893 200.663 117.688 201.587 117.688H203.085C203.131 117.688 203.155 117.665 203.155 117.618V117.282C203.155 116.918 203.047 116.638 202.833 116.442C202.618 116.237 202.296 116.134 201.867 116.134C201.512 116.134 201.223 116.199 200.999 116.33C200.784 116.451 200.649 116.624 200.593 116.848C200.565 116.96 200.499 117.007 200.397 116.988L199.039 116.82C198.992 116.811 198.95 116.797 198.913 116.778C198.885 116.75 198.875 116.717 198.885 116.68C198.959 116.111 199.263 115.644 199.795 115.28C200.336 114.916 201.013 114.734 201.825 114.734ZM201.489 120.824C201.946 120.824 202.338 120.703 202.665 120.46C202.991 120.217 203.155 119.909 203.155 119.536V118.878C203.155 118.831 203.131 118.808 203.085 118.808H201.909C201.414 118.808 201.022 118.901 200.733 119.088C200.453 119.275 200.313 119.541 200.313 119.886C200.313 120.185 200.42 120.418 200.635 120.586C200.859 120.745 201.143 120.824 201.489 120.824ZM206.577 122C206.53 122 206.488 121.986 206.451 121.958C206.423 121.921 206.409 121.879 206.409 121.832V112.368C206.409 112.321 206.423 112.284 206.451 112.256C206.488 112.219 206.53 112.2 206.577 112.2H207.865C207.912 112.2 207.949 112.219 207.977 112.256C208.014 112.284 208.033 112.321 208.033 112.368V121.832C208.033 121.879 208.014 121.921 207.977 121.958C207.949 121.986 207.912 122 207.865 122H206.577ZM217.417 114.734C218.135 114.734 218.695 114.953 219.097 115.392C219.507 115.821 219.713 116.423 219.713 117.198V121.832C219.713 121.879 219.694 121.921 219.657 121.958C219.629 121.986 219.591 122 219.545 122H218.271C218.224 122 218.182 121.986 218.145 121.958C218.117 121.921 218.103 121.879 218.103 121.832V117.534C218.103 117.105 217.986 116.764 217.753 116.512C217.529 116.26 217.225 116.134 216.843 116.134C216.46 116.134 216.147 116.26 215.905 116.512C215.662 116.764 215.541 117.1 215.541 117.52V121.832C215.541 121.879 215.522 121.921 215.485 121.958C215.457 121.986 215.419 122 215.373 122H214.099C214.052 122 214.01 121.986 213.973 121.958C213.945 121.921 213.931 121.879 213.931 121.832V117.534C213.931 117.105 213.814 116.764 213.581 116.512C213.347 116.26 213.039 116.134 212.657 116.134C212.302 116.134 212.008 116.237 211.775 116.442C211.551 116.647 211.42 116.927 211.383 117.282V121.832C211.383 121.879 211.364 121.921 211.327 121.958C211.299 121.986 211.261 122 211.215 122H209.927C209.88 122 209.838 121.986 209.801 121.958C209.773 121.921 209.759 121.879 209.759 121.832V115.014C209.759 114.967 209.773 114.93 209.801 114.902C209.838 114.865 209.88 114.846 209.927 114.846H211.215C211.261 114.846 211.299 114.865 211.327 114.902C211.364 114.93 211.383 114.967 211.383 115.014V115.476C211.383 115.504 211.392 115.523 211.411 115.532C211.429 115.541 211.448 115.532 211.467 115.504C211.672 115.243 211.924 115.051 212.223 114.93C212.531 114.799 212.871 114.734 213.245 114.734C213.702 114.734 214.103 114.827 214.449 115.014C214.794 115.201 215.06 115.471 215.247 115.826C215.275 115.863 215.307 115.863 215.345 115.826C215.55 115.453 215.835 115.177 216.199 115C216.563 114.823 216.969 114.734 217.417 114.734ZM227.345 117.618C227.383 117.851 227.401 118.113 227.401 118.402L227.387 118.836C227.387 118.948 227.331 119.004 227.219 119.004H222.837C222.791 119.004 222.767 119.027 222.767 119.074C222.795 119.382 222.837 119.592 222.893 119.704C223.117 120.376 223.663 120.717 224.531 120.726C225.166 120.726 225.67 120.465 226.043 119.942C226.081 119.886 226.127 119.858 226.183 119.858C226.221 119.858 226.253 119.872 226.281 119.9L227.149 120.614C227.233 120.679 227.247 120.754 227.191 120.838C226.902 121.249 226.515 121.566 226.029 121.79C225.553 122.014 225.021 122.126 224.433 122.126C223.705 122.126 223.085 121.963 222.571 121.636C222.067 121.309 221.699 120.852 221.465 120.264C221.251 119.76 221.143 119.06 221.143 118.164C221.143 117.623 221.199 117.184 221.311 116.848C221.498 116.195 221.848 115.681 222.361 115.308C222.884 114.925 223.509 114.734 224.237 114.734C226.076 114.734 227.112 115.695 227.345 117.618ZM224.237 116.134C223.892 116.134 223.603 116.223 223.369 116.4C223.145 116.568 222.987 116.806 222.893 117.114C222.837 117.273 222.8 117.478 222.781 117.73C222.763 117.777 222.781 117.8 222.837 117.8H225.679C225.726 117.8 225.749 117.777 225.749 117.73C225.731 117.497 225.703 117.319 225.665 117.198C225.581 116.862 225.413 116.601 225.161 116.414C224.919 116.227 224.611 116.134 224.237 116.134ZM229.81 113.866C229.52 113.866 229.282 113.773 229.096 113.586C228.909 113.399 228.816 113.161 228.816 112.872C228.816 112.583 228.909 112.345 229.096 112.158C229.282 111.971 229.52 111.878 229.81 111.878C230.099 111.878 230.337 111.971 230.524 112.158C230.71 112.345 230.804 112.583 230.804 112.872C230.804 113.161 230.71 113.399 230.524 113.586C230.337 113.773 230.099 113.866 229.81 113.866ZM229.138 122C229.091 122 229.049 121.986 229.012 121.958C228.984 121.921 228.97 121.879 228.97 121.832V115C228.97 114.953 228.984 114.916 229.012 114.888C229.049 114.851 229.091 114.832 229.138 114.832H230.426C230.472 114.832 230.51 114.851 230.538 114.888C230.575 114.916 230.594 114.953 230.594 115V121.832C230.594 121.879 230.575 121.921 230.538 121.958C230.51 121.986 230.472 122 230.426 122H229.138ZM235.786 114.762C236.085 114.762 236.346 114.823 236.57 114.944C236.645 114.981 236.673 115.051 236.654 115.154L236.416 116.414C236.407 116.526 236.341 116.559 236.22 116.512C236.08 116.465 235.917 116.442 235.73 116.442C235.609 116.442 235.515 116.447 235.45 116.456C235.058 116.475 234.731 116.615 234.47 116.876C234.209 117.128 234.078 117.459 234.078 117.87V121.832C234.078 121.879 234.059 121.921 234.022 121.958C233.994 121.986 233.957 122 233.91 122H232.622C232.575 122 232.533 121.986 232.496 121.958C232.468 121.921 232.454 121.879 232.454 121.832V115.014C232.454 114.967 232.468 114.93 232.496 114.902C232.533 114.865 232.575 114.846 232.622 114.846H233.91C233.957 114.846 233.994 114.865 234.022 114.902C234.059 114.93 234.078 114.967 234.078 115.014V115.644C234.078 115.681 234.083 115.705 234.092 115.714C234.111 115.714 234.129 115.7 234.148 115.672C234.54 115.065 235.086 114.762 235.786 114.762ZM240.379 114.734C240.967 114.734 241.485 114.837 241.933 115.042C242.381 115.247 242.727 115.532 242.969 115.896C243.212 116.251 243.333 116.657 243.333 117.114V121.832C243.333 121.879 243.315 121.921 243.277 121.958C243.249 121.986 243.212 122 243.165 122H241.877C241.831 122 241.789 121.986 241.751 121.958C241.723 121.921 241.709 121.879 241.709 121.832V121.384C241.709 121.356 241.7 121.342 241.681 121.342C241.663 121.333 241.644 121.337 241.625 121.356C241.168 121.86 240.505 122.112 239.637 122.112C238.937 122.112 238.359 121.935 237.901 121.58C237.453 121.225 237.229 120.698 237.229 119.998C237.229 119.27 237.481 118.705 237.985 118.304C238.499 117.893 239.217 117.688 240.141 117.688H241.639C241.686 117.688 241.709 117.665 241.709 117.618V117.282C241.709 116.918 241.602 116.638 241.387 116.442C241.173 116.237 240.851 116.134 240.421 116.134C240.067 116.134 239.777 116.199 239.553 116.33C239.339 116.451 239.203 116.624 239.147 116.848C239.119 116.96 239.054 117.007 238.951 116.988L237.593 116.82C237.547 116.811 237.505 116.797 237.467 116.778C237.439 116.75 237.43 116.717 237.439 116.68C237.514 116.111 237.817 115.644 238.349 115.28C238.891 114.916 239.567 114.734 240.379 114.734ZM240.043 120.824C240.501 120.824 240.893 120.703 241.219 120.46C241.546 120.217 241.709 119.909 241.709 119.536V118.878C241.709 118.831 241.686 118.808 241.639 118.808H240.463C239.969 118.808 239.577 118.901 239.287 119.088C239.007 119.275 238.867 119.541 238.867 119.886C238.867 120.185 238.975 120.418 239.189 120.586C239.413 120.745 239.698 120.824 240.043 120.824ZM191.283 129.368C191.283 129.321 191.297 129.284 191.325 129.256C191.362 129.219 191.404 129.2 191.451 129.2H192.739C192.785 129.2 192.823 129.219 192.851 129.256C192.888 129.284 192.907 129.321 192.907 129.368V138.832C192.907 138.879 192.888 138.921 192.851 138.958C192.823 138.986 192.785 139 192.739 139H191.451C191.404 139 191.362 138.986 191.325 138.958C191.297 138.921 191.283 138.879 191.283 138.832V138.412C191.283 138.384 191.273 138.365 191.255 138.356C191.236 138.347 191.217 138.356 191.199 138.384C190.788 138.869 190.251 139.112 189.589 139.112C188.926 139.112 188.366 138.939 187.909 138.594C187.451 138.249 187.12 137.768 186.915 137.152C186.747 136.629 186.663 136.046 186.663 135.402C186.663 134.739 186.742 134.17 186.901 133.694C187.106 133.078 187.437 132.597 187.895 132.252C188.352 131.907 188.926 131.734 189.617 131.734C190.261 131.734 190.788 131.967 191.199 132.434C191.217 132.453 191.236 132.462 191.255 132.462C191.273 132.453 191.283 132.434 191.283 132.406V129.368ZM190.947 137.04C191.161 136.657 191.269 136.116 191.269 135.416C191.269 134.688 191.152 134.133 190.919 133.75C190.667 133.339 190.312 133.134 189.855 133.134C189.379 133.134 189.005 133.33 188.735 133.722C188.455 134.133 188.315 134.702 188.315 135.43C188.315 136.083 188.427 136.62 188.651 137.04C188.912 137.488 189.309 137.712 189.841 137.712C190.317 137.712 190.685 137.488 190.947 137.04ZM197.703 139.112C196.966 139.112 196.331 138.925 195.799 138.552C195.276 138.179 194.908 137.661 194.693 136.998C194.534 136.494 194.455 135.962 194.455 135.402C194.455 134.805 194.53 134.273 194.679 133.806C194.894 133.153 195.267 132.644 195.799 132.28C196.331 131.916 196.97 131.734 197.717 131.734C198.426 131.734 199.038 131.916 199.551 132.28C200.074 132.644 200.442 133.148 200.657 133.792C200.825 134.24 200.909 134.772 200.909 135.388C200.909 135.976 200.83 136.508 200.671 136.984C200.456 137.647 200.088 138.169 199.565 138.552C199.042 138.925 198.422 139.112 197.703 139.112ZM197.703 137.712C198.048 137.712 198.342 137.614 198.585 137.418C198.837 137.222 199.019 136.947 199.131 136.592C199.224 136.284 199.271 135.892 199.271 135.416C199.271 134.912 199.224 134.52 199.131 134.24C199.028 133.885 198.851 133.615 198.599 133.428C198.347 133.232 198.039 133.134 197.675 133.134C197.33 133.134 197.031 133.232 196.779 133.428C196.527 133.615 196.345 133.885 196.233 134.24C196.14 134.567 196.093 134.959 196.093 135.416C196.093 135.873 196.14 136.265 196.233 136.592C196.336 136.947 196.513 137.222 196.765 137.418C197.026 137.614 197.339 137.712 197.703 137.712ZM205.104 139.084C204.516 139.084 203.998 139 203.55 138.832C203.112 138.655 202.771 138.417 202.528 138.118C202.286 137.81 202.164 137.469 202.164 137.096V136.97C202.164 136.923 202.178 136.886 202.206 136.858C202.244 136.821 202.286 136.802 202.332 136.802H203.564C203.611 136.802 203.648 136.821 203.676 136.858C203.714 136.886 203.732 136.923 203.732 136.97V136.998C203.732 137.231 203.858 137.437 204.11 137.614C204.372 137.782 204.698 137.866 205.09 137.866C205.464 137.866 205.767 137.791 206 137.642C206.234 137.483 206.35 137.287 206.35 137.054C206.35 136.839 206.252 136.681 206.056 136.578C205.87 136.466 205.562 136.349 205.132 136.228L204.6 136.06C204.124 135.92 203.723 135.771 203.396 135.612C203.07 135.453 202.794 135.239 202.57 134.968C202.346 134.688 202.234 134.333 202.234 133.904C202.234 133.251 202.491 132.733 203.004 132.35C203.518 131.958 204.194 131.762 205.034 131.762C205.604 131.762 206.103 131.855 206.532 132.042C206.962 132.219 207.293 132.471 207.526 132.798C207.76 133.115 207.876 133.479 207.876 133.89C207.876 133.937 207.858 133.979 207.82 134.016C207.792 134.044 207.755 134.058 207.708 134.058H206.518C206.472 134.058 206.43 134.044 206.392 134.016C206.364 133.979 206.35 133.937 206.35 133.89C206.35 133.647 206.229 133.447 205.986 133.288C205.753 133.12 205.431 133.036 205.02 133.036C204.656 133.036 204.358 133.106 204.124 133.246C203.9 133.377 203.788 133.563 203.788 133.806C203.788 134.03 203.896 134.203 204.11 134.324C204.334 134.436 204.703 134.562 205.216 134.702L205.524 134.786C206.019 134.935 206.434 135.089 206.77 135.248C207.106 135.397 207.391 135.612 207.624 135.892C207.858 136.163 207.974 136.517 207.974 136.956C207.974 137.619 207.713 138.141 207.19 138.524C206.668 138.897 205.972 139.084 205.104 139.084ZM212.235 139C212.189 139 212.147 138.986 212.109 138.958C212.081 138.921 212.067 138.879 212.067 138.832V132.014C212.067 131.967 212.081 131.93 212.109 131.902C212.147 131.865 212.189 131.846 212.235 131.846H213.523C213.57 131.846 213.607 131.865 213.635 131.902C213.673 131.93 213.691 131.967 213.691 132.014V138.832C213.691 138.879 213.673 138.921 213.635 138.958C213.607 138.986 213.57 139 213.523 139H212.235ZM212.221 130.95C212.156 130.95 212.114 130.931 212.095 130.894C212.077 130.857 212.081 130.81 212.109 130.754L212.879 129.312C212.917 129.237 212.987 129.2 213.089 129.2H214.195C214.261 129.2 214.303 129.223 214.321 129.27C214.349 129.307 214.345 129.354 214.307 129.41L213.341 130.838C213.295 130.913 213.229 130.95 213.145 130.95H212.221ZM218.767 131.734C219.523 131.734 220.125 131.958 220.573 132.406C221.03 132.854 221.259 133.465 221.259 134.24V138.832C221.259 138.879 221.24 138.921 221.203 138.958C221.175 138.986 221.137 139 221.091 139H219.803C219.756 139 219.714 138.986 219.677 138.958C219.649 138.921 219.635 138.879 219.635 138.832V134.576C219.635 134.147 219.513 133.801 219.271 133.54C219.028 133.269 218.706 133.134 218.305 133.134C217.903 133.134 217.577 133.265 217.325 133.526C217.082 133.787 216.961 134.133 216.961 134.562V138.832C216.961 138.879 216.942 138.921 216.905 138.958C216.877 138.986 216.839 139 216.793 139H215.505C215.458 139 215.416 138.986 215.379 138.958C215.351 138.921 215.337 138.879 215.337 138.832V132.014C215.337 131.967 215.351 131.93 215.379 131.902C215.416 131.865 215.458 131.846 215.505 131.846H216.793C216.839 131.846 216.877 131.865 216.905 131.902C216.942 131.93 216.961 131.967 216.961 132.014V132.462C216.961 132.49 216.97 132.509 216.989 132.518C217.007 132.527 217.021 132.518 217.031 132.49C217.413 131.986 217.992 131.734 218.767 131.734ZM227.335 129.368C227.335 129.321 227.349 129.284 227.377 129.256C227.415 129.219 227.457 129.2 227.503 129.2H228.791C228.838 129.2 228.875 129.219 228.903 129.256C228.941 129.284 228.959 129.321 228.959 129.368V138.832C228.959 138.879 228.941 138.921 228.903 138.958C228.875 138.986 228.838 139 228.791 139H227.503C227.457 139 227.415 138.986 227.377 138.958C227.349 138.921 227.335 138.879 227.335 138.832V138.412C227.335 138.384 227.326 138.365 227.307 138.356C227.289 138.347 227.27 138.356 227.251 138.384C226.841 138.869 226.304 139.112 225.641 139.112C224.979 139.112 224.419 138.939 223.961 138.594C223.504 138.249 223.173 137.768 222.967 137.152C222.799 136.629 222.715 136.046 222.715 135.402C222.715 134.739 222.795 134.17 222.953 133.694C223.159 133.078 223.49 132.597 223.947 132.252C224.405 131.907 224.979 131.734 225.669 131.734C226.313 131.734 226.841 131.967 227.251 132.434C227.27 132.453 227.289 132.462 227.307 132.462C227.326 132.453 227.335 132.434 227.335 132.406V129.368ZM226.999 137.04C227.214 136.657 227.321 136.116 227.321 135.416C227.321 134.688 227.205 134.133 226.971 133.75C226.719 133.339 226.365 133.134 225.907 133.134C225.431 133.134 225.058 133.33 224.787 133.722C224.507 134.133 224.367 134.702 224.367 135.43C224.367 136.083 224.479 136.62 224.703 137.04C224.965 137.488 225.361 137.712 225.893 137.712C226.369 137.712 226.738 137.488 226.999 137.04ZM231.642 130.866C231.352 130.866 231.114 130.773 230.928 130.586C230.741 130.399 230.648 130.161 230.648 129.872C230.648 129.583 230.741 129.345 230.928 129.158C231.114 128.971 231.352 128.878 231.642 128.878C231.931 128.878 232.169 128.971 232.356 129.158C232.542 129.345 232.636 129.583 232.636 129.872C232.636 130.161 232.542 130.399 232.356 130.586C232.169 130.773 231.931 130.866 231.642 130.866ZM230.97 139C230.923 139 230.881 138.986 230.844 138.958C230.816 138.921 230.802 138.879 230.802 138.832V132C230.802 131.953 230.816 131.916 230.844 131.888C230.881 131.851 230.923 131.832 230.97 131.832H232.258C232.304 131.832 232.342 131.851 232.37 131.888C232.407 131.916 232.426 131.953 232.426 132V138.832C232.426 138.879 232.407 138.921 232.37 138.958C232.342 138.986 232.304 139 232.258 139H230.97ZM237.324 139.112C236.587 139.112 235.952 138.925 235.42 138.552C234.897 138.179 234.529 137.661 234.314 136.998C234.155 136.494 234.076 135.962 234.076 135.402C234.076 134.805 234.151 134.273 234.3 133.806C234.515 133.153 234.888 132.644 235.42 132.28C235.952 131.916 236.591 131.734 237.338 131.734C238.047 131.734 238.659 131.916 239.172 132.28C239.695 132.644 240.063 133.148 240.278 133.792C240.446 134.24 240.53 134.772 240.53 135.388C240.53 135.976 240.451 136.508 240.292 136.984C240.077 137.647 239.709 138.169 239.186 138.552C238.663 138.925 238.043 139.112 237.324 139.112ZM237.324 137.712C237.669 137.712 237.963 137.614 238.206 137.418C238.458 137.222 238.64 136.947 238.752 136.592C238.845 136.284 238.892 135.892 238.892 135.416C238.892 134.912 238.845 134.52 238.752 134.24C238.649 133.885 238.472 133.615 238.22 133.428C237.968 133.232 237.66 133.134 237.296 133.134C236.951 133.134 236.652 133.232 236.4 133.428C236.148 133.615 235.966 133.885 235.854 134.24C235.761 134.567 235.714 134.959 235.714 135.416C235.714 135.873 235.761 136.265 235.854 136.592C235.957 136.947 236.134 137.222 236.386 137.418C236.647 137.614 236.96 137.712 237.324 137.712ZM244.725 139.084C244.137 139.084 243.619 139 243.171 138.832C242.733 138.655 242.392 138.417 242.149 138.118C241.907 137.81 241.785 137.469 241.785 137.096V136.97C241.785 136.923 241.799 136.886 241.827 136.858C241.865 136.821 241.907 136.802 241.953 136.802H243.185C243.232 136.802 243.269 136.821 243.297 136.858C243.335 136.886 243.353 136.923 243.353 136.97V136.998C243.353 137.231 243.479 137.437 243.731 137.614C243.993 137.782 244.319 137.866 244.711 137.866C245.085 137.866 245.388 137.791 245.621 137.642C245.855 137.483 245.971 137.287 245.971 137.054C245.971 136.839 245.873 136.681 245.677 136.578C245.491 136.466 245.183 136.349 244.753 136.228L244.221 136.06C243.745 135.92 243.344 135.771 243.017 135.612C242.691 135.453 242.415 135.239 242.191 134.968C241.967 134.688 241.855 134.333 241.855 133.904C241.855 133.251 242.112 132.733 242.625 132.35C243.139 131.958 243.815 131.762 244.655 131.762C245.225 131.762 245.724 131.855 246.153 132.042C246.583 132.219 246.914 132.471 247.147 132.798C247.381 133.115 247.497 133.479 247.497 133.89C247.497 133.937 247.479 133.979 247.441 134.016C247.413 134.044 247.376 134.058 247.329 134.058H246.139C246.093 134.058 246.051 134.044 246.013 134.016C245.985 133.979 245.971 133.937 245.971 133.89C245.971 133.647 245.85 133.447 245.607 133.288C245.374 133.12 245.052 133.036 244.641 133.036C244.277 133.036 243.979 133.106 243.745 133.246C243.521 133.377 243.409 133.563 243.409 133.806C243.409 134.03 243.517 134.203 243.731 134.324C243.955 134.436 244.324 134.562 244.837 134.702L245.145 134.786C245.64 134.935 246.055 135.089 246.391 135.248C246.727 135.397 247.012 135.612 247.245 135.892C247.479 136.163 247.595 136.517 247.595 136.956C247.595 137.619 247.334 138.141 246.811 138.524C246.289 138.897 245.593 139.084 244.725 139.084Z" fill="white"/>
<path d="M423.135 50.306C423.135 78.0892 400.241 100.612 371.999 100.612C343.757 100.612 320.863 78.0892 320.863 50.306C320.863 22.5228 343.757 0 371.999 0C400.241 0 423.135 22.5228 423.135 50.306ZM361.772 50.306C361.772 55.8627 366.351 60.3672 371.999 60.3672C377.647 60.3672 382.226 55.8627 382.226 50.306C382.226 44.7494 377.647 40.2448 371.999 40.2448C366.351 40.2448 361.772 44.7494 361.772 50.306Z" fill="#3C3C3C"/>
<path d="M371.977 1.29844C371.977 0.572085 372.576 -0.018541 373.314 0.000445301C381.262 0.204905 389.059 2.23035 396.083 5.92332C403.499 9.82313 409.823 15.4621 414.495 22.3407C419.167 29.2194 422.043 37.1254 422.867 45.3584C423.691 53.5914 422.439 61.8974 419.221 69.5405C416.003 77.1837 410.918 83.9281 404.418 89.1763C397.917 94.4246 390.201 98.0147 381.953 99.6286C373.705 101.243 365.18 100.831 357.133 98.4291C349.512 96.155 342.543 92.1633 336.776 86.7788C336.24 86.2787 336.241 85.4446 336.764 84.931L363.8 58.3336C364.322 57.82 365.164 57.828 365.75 58.2703C366.723 59.0055 367.827 59.5646 369.008 59.9172C370.618 60.3975 372.323 60.4799 373.972 60.1571C375.622 59.8343 377.165 59.1163 378.465 58.0667C379.765 57.017 380.782 55.6681 381.426 54.1395C382.069 52.6109 382.32 50.9497 382.155 49.3031C381.99 47.6565 381.415 46.0753 380.481 44.6996C379.546 43.3238 378.281 42.196 376.798 41.4161C375.709 40.8435 374.527 40.4713 373.31 40.3139C372.578 40.2192 371.977 39.6392 371.977 38.9129V1.29844Z" fill="#FFCA29"/>
<g filter="url(#filter2_d_817_68)">
<ellipse cx="371.966" cy="50.2736" rx="27.5019" ry="27.0553" fill="white"/>
</g>
<path d="M363.447 52.48C363.735 53.024 363.879 53.6853 363.879 54.464C363.879 55.1147 363.772 55.6853 363.559 56.176C363.303 56.7947 362.898 57.2747 362.343 57.616C361.799 57.9467 361.143 58.112 360.375 58.112C359.575 58.112 358.892 57.9307 358.327 57.568C357.762 57.1947 357.356 56.6773 357.111 56.016C356.94 55.568 356.855 55.0453 356.855 54.448V49.568C356.855 48.992 356.999 48.4853 357.287 48.048C357.575 47.6107 357.975 47.2747 358.487 47.04C359.01 46.7947 359.607 46.672 360.279 46.672C360.93 46.672 361.506 46.7893 362.007 47.024C362.519 47.2587 362.914 47.5893 363.191 48.016C363.479 48.4427 363.623 48.9333 363.623 49.488V49.84C363.623 49.8933 363.602 49.9413 363.559 49.984C363.527 50.016 363.484 50.032 363.431 50.032H361.959C361.906 50.032 361.858 50.016 361.815 49.984C361.783 49.9413 361.767 49.8933 361.767 49.84V49.728C361.767 49.3013 361.623 48.9547 361.335 48.688C361.058 48.4107 360.7 48.272 360.263 48.272C359.815 48.272 359.442 48.416 359.143 48.704C358.855 48.9813 358.711 49.344 358.711 49.792V51.536C358.711 51.568 358.722 51.5893 358.743 51.6C358.764 51.6107 358.786 51.6053 358.807 51.584C359.255 51.1467 359.874 50.928 360.663 50.928C361.292 50.928 361.842 51.0613 362.311 51.328C362.791 51.5947 363.17 51.9787 363.447 52.48ZM361.783 55.632C361.943 55.312 362.023 54.9333 362.023 54.496C362.023 54.016 361.932 53.6053 361.751 53.264C361.452 52.752 360.988 52.496 360.359 52.496C359.698 52.496 359.228 52.7627 358.951 53.296C358.791 53.616 358.711 54.032 358.711 54.544C358.711 54.9813 358.78 55.3387 358.919 55.616C359.175 56.2027 359.655 56.496 360.359 56.496C361.031 56.496 361.506 56.208 361.783 55.632ZM367.788 56.304C367.766 56.3253 367.756 56.3467 367.756 56.368C367.766 56.3893 367.788 56.4 367.82 56.4H372.38C372.433 56.4 372.476 56.4213 372.508 56.464C372.55 56.496 372.572 56.5387 372.572 56.592V57.808C372.572 57.8613 372.55 57.9093 372.508 57.952C372.476 57.984 372.433 58 372.38 58H365.5C365.446 58 365.398 57.984 365.356 57.952C365.324 57.9093 365.308 57.8613 365.308 57.808V56.656C365.308 56.56 365.34 56.48 365.404 56.416C366.214 55.552 367.153 54.4907 368.22 53.232L368.972 52.352C369.953 51.2107 370.444 50.3467 370.444 49.76C370.444 49.3227 370.289 48.9653 369.98 48.688C369.67 48.4107 369.27 48.272 368.78 48.272C368.289 48.272 367.889 48.4107 367.58 48.688C367.281 48.9653 367.132 49.3333 367.132 49.792V50.208C367.132 50.2613 367.11 50.3093 367.068 50.352C367.036 50.384 366.993 50.4 366.94 50.4H365.452C365.398 50.4 365.35 50.384 365.308 50.352C365.276 50.3093 365.26 50.2613 365.26 50.208V49.52C365.281 48.944 365.446 48.4427 365.756 48.016C366.065 47.5893 366.481 47.2587 367.004 47.024C367.537 46.7893 368.129 46.672 368.78 46.672C369.494 46.672 370.118 46.8053 370.652 47.072C371.185 47.3387 371.596 47.7067 371.884 48.176C372.172 48.6347 372.316 49.152 372.316 49.728C372.316 50.6027 371.852 51.6107 370.924 52.752C370.412 53.392 369.569 54.352 368.396 55.632L367.788 56.304ZM376.952 51.536C376.504 51.536 376.088 51.4293 375.704 51.216C375.331 50.992 375.032 50.6933 374.808 50.32C374.595 49.9467 374.488 49.536 374.488 49.088C374.488 48.6507 374.595 48.2453 374.808 47.872C375.032 47.4987 375.331 47.2053 375.704 46.992C376.088 46.768 376.504 46.656 376.952 46.656C377.39 46.656 377.795 46.768 378.168 46.992C378.552 47.2053 378.851 47.4987 379.064 47.872C379.288 48.2453 379.4 48.6507 379.4 49.088C379.4 49.536 379.288 49.9467 379.064 50.32C378.851 50.6933 378.558 50.992 378.184 51.216C377.811 51.4293 377.4 51.536 376.952 51.536ZM376.424 58C376.35 58 376.302 57.9787 376.28 57.936C376.259 57.8933 376.264 57.84 376.296 57.776L382.328 46.928C382.382 46.8427 382.462 46.8 382.568 46.8H383.496C383.571 46.8 383.619 46.8213 383.64 46.864C383.662 46.9067 383.656 46.96 383.624 47.024L377.608 57.872C377.555 57.9573 377.475 58 377.368 58H376.424ZM376.952 50.416C377.315 50.416 377.619 50.288 377.864 50.032C378.12 49.776 378.248 49.4613 378.248 49.088C378.248 48.7253 378.12 48.416 377.864 48.16C377.619 47.904 377.315 47.776 376.952 47.776C376.579 47.776 376.264 47.904 376.008 48.16C375.752 48.416 375.624 48.7253 375.624 49.088C375.624 49.4613 375.752 49.776 376.008 50.032C376.264 50.288 376.579 50.416 376.952 50.416ZM383.112 58.144C382.664 58.144 382.248 58.0373 381.864 57.824C381.491 57.6 381.192 57.3013 380.968 56.928C380.755 56.5547 380.648 56.144 380.648 55.696C380.648 55.2587 380.755 54.8533 380.968 54.48C381.192 54.1067 381.491 53.8133 381.864 53.6C382.248 53.376 382.664 53.264 383.112 53.264C383.55 53.264 383.955 53.376 384.328 53.6C384.712 53.8133 385.011 54.1067 385.224 54.48C385.448 54.8533 385.56 55.2587 385.56 55.696C385.56 56.144 385.448 56.5547 385.224 56.928C385.011 57.3013 384.718 57.6 384.344 57.824C383.971 58.0373 383.56 58.144 383.112 58.144ZM383.112 57.024C383.475 57.024 383.784 56.896 384.04 56.64C384.296 56.384 384.424 56.0693 384.424 55.696C384.424 55.3333 384.296 55.024 384.04 54.768C383.784 54.512 383.475 54.384 383.112 54.384C382.739 54.384 382.424 54.512 382.168 54.768C381.912 55.024 381.784 55.3333 381.784 55.696C381.784 56.0693 381.912 56.384 382.168 56.64C382.424 56.896 382.739 57.024 383.112 57.024Z" fill="black"/>
<path d="M353.355 113.186C353.943 113.186 354.461 113.307 354.909 113.55C355.357 113.793 355.703 114.138 355.945 114.586C356.197 115.025 356.323 115.533 356.323 116.112C356.323 116.681 356.197 117.185 355.945 117.624C355.693 118.063 355.334 118.403 354.867 118.646C354.41 118.879 353.878 118.996 353.271 118.996H351.031C350.985 118.996 350.961 119.019 350.961 119.066V122.832C350.961 122.879 350.943 122.921 350.905 122.958C350.877 122.986 350.84 123 350.793 123H349.505C349.459 123 349.417 122.986 349.379 122.958C349.351 122.921 349.337 122.879 349.337 122.832V113.354C349.337 113.307 349.351 113.27 349.379 113.242C349.417 113.205 349.459 113.186 349.505 113.186H353.355ZM353.117 117.68C353.593 117.68 353.976 117.54 354.265 117.26C354.555 116.98 354.699 116.611 354.699 116.154C354.699 115.687 354.555 115.309 354.265 115.02C353.976 114.731 353.593 114.586 353.117 114.586H351.031C350.985 114.586 350.961 114.609 350.961 114.656V117.61C350.961 117.657 350.985 117.68 351.031 117.68H353.117ZM363.272 118.618C363.309 118.851 363.328 119.113 363.328 119.402L363.314 119.836C363.314 119.948 363.258 120.004 363.146 120.004H358.764C358.717 120.004 358.694 120.027 358.694 120.074C358.722 120.382 358.764 120.592 358.82 120.704C359.044 121.376 359.59 121.717 360.458 121.726C361.093 121.726 361.597 121.465 361.97 120.942C362.007 120.886 362.054 120.858 362.11 120.858C362.147 120.858 362.18 120.872 362.208 120.9L363.076 121.614C363.16 121.679 363.174 121.754 363.118 121.838C362.829 122.249 362.441 122.566 361.956 122.79C361.48 123.014 360.948 123.126 360.36 123.126C359.632 123.126 359.011 122.963 358.498 122.636C357.994 122.309 357.625 121.852 357.392 121.264C357.177 120.76 357.07 120.06 357.07 119.164C357.07 118.623 357.126 118.184 357.238 117.848C357.425 117.195 357.775 116.681 358.288 116.308C358.811 115.925 359.436 115.734 360.164 115.734C362.003 115.734 363.039 116.695 363.272 118.618ZM360.164 117.134C359.819 117.134 359.529 117.223 359.296 117.4C359.072 117.568 358.913 117.806 358.82 118.114C358.764 118.273 358.727 118.478 358.708 118.73C358.689 118.777 358.708 118.8 358.764 118.8H361.606C361.653 118.8 361.676 118.777 361.676 118.73C361.657 118.497 361.629 118.319 361.592 118.198C361.508 117.862 361.34 117.601 361.088 117.414C360.845 117.227 360.537 117.134 360.164 117.134ZM368.242 115.734C368.998 115.734 369.6 115.958 370.048 116.406C370.506 116.854 370.734 117.465 370.734 118.24V122.832C370.734 122.879 370.716 122.921 370.678 122.958C370.65 122.986 370.613 123 370.566 123H369.278C369.232 123 369.19 122.986 369.152 122.958C369.124 122.921 369.11 122.879 369.11 122.832V118.576C369.11 118.147 368.989 117.801 368.746 117.54C368.504 117.269 368.182 117.134 367.78 117.134C367.379 117.134 367.052 117.265 366.8 117.526C366.558 117.787 366.436 118.133 366.436 118.562V122.832C366.436 122.879 366.418 122.921 366.38 122.958C366.352 122.986 366.315 123 366.268 123H364.98C364.934 123 364.892 122.986 364.854 122.958C364.826 122.921 364.812 122.879 364.812 122.832V116.014C364.812 115.967 364.826 115.93 364.854 115.902C364.892 115.865 364.934 115.846 364.98 115.846H366.268C366.315 115.846 366.352 115.865 366.38 115.902C366.418 115.93 366.436 115.967 366.436 116.014V116.462C366.436 116.49 366.446 116.509 366.464 116.518C366.483 116.527 366.497 116.518 366.506 116.49C366.889 115.986 367.468 115.734 368.242 115.734ZM378.407 118.618C378.444 118.851 378.463 119.113 378.463 119.402L378.449 119.836C378.449 119.948 378.393 120.004 378.281 120.004H373.899C373.852 120.004 373.829 120.027 373.829 120.074C373.857 120.382 373.899 120.592 373.955 120.704C374.179 121.376 374.725 121.717 375.593 121.726C376.228 121.726 376.732 121.465 377.105 120.942C377.142 120.886 377.189 120.858 377.245 120.858C377.282 120.858 377.315 120.872 377.343 120.9L378.211 121.614C378.295 121.679 378.309 121.754 378.253 121.838C377.964 122.249 377.576 122.566 377.091 122.79C376.615 123.014 376.083 123.126 375.495 123.126C374.767 123.126 374.146 122.963 373.633 122.636C373.129 122.309 372.76 121.852 372.527 121.264C372.312 120.76 372.205 120.06 372.205 119.164C372.205 118.623 372.261 118.184 372.373 117.848C372.56 117.195 372.91 116.681 373.423 116.308C373.946 115.925 374.571 115.734 375.299 115.734C377.138 115.734 378.174 116.695 378.407 118.618ZM375.299 117.134C374.954 117.134 374.664 117.223 374.431 117.4C374.207 117.568 374.048 117.806 373.955 118.114C373.899 118.273 373.862 118.478 373.843 118.73C373.824 118.777 373.843 118.8 373.899 118.8H376.741C376.788 118.8 376.811 118.777 376.811 118.73C376.792 118.497 376.764 118.319 376.727 118.198C376.643 117.862 376.475 117.601 376.223 117.414C375.98 117.227 375.672 117.134 375.299 117.134ZM384.385 113.368C384.385 113.321 384.399 113.284 384.427 113.256C384.464 113.219 384.506 113.2 384.553 113.2H385.841C385.888 113.2 385.925 113.219 385.953 113.256C385.99 113.284 386.009 113.321 386.009 113.368V122.832C386.009 122.879 385.99 122.921 385.953 122.958C385.925 122.986 385.888 123 385.841 123H384.553C384.506 123 384.464 122.986 384.427 122.958C384.399 122.921 384.385 122.879 384.385 122.832V122.412C384.385 122.384 384.376 122.365 384.357 122.356C384.338 122.347 384.32 122.356 384.301 122.384C383.89 122.869 383.354 123.112 382.691 123.112C382.028 123.112 381.468 122.939 381.011 122.594C380.554 122.249 380.222 121.768 380.017 121.152C379.849 120.629 379.765 120.046 379.765 119.402C379.765 118.739 379.844 118.17 380.003 117.694C380.208 117.078 380.54 116.597 380.997 116.252C381.454 115.907 382.028 115.734 382.719 115.734C383.363 115.734 383.89 115.967 384.301 116.434C384.32 116.453 384.338 116.462 384.357 116.462C384.376 116.453 384.385 116.434 384.385 116.406V113.368ZM384.049 121.04C384.264 120.657 384.371 120.116 384.371 119.416C384.371 118.688 384.254 118.133 384.021 117.75C383.769 117.339 383.414 117.134 382.957 117.134C382.481 117.134 382.108 117.33 381.837 117.722C381.557 118.133 381.417 118.702 381.417 119.43C381.417 120.083 381.529 120.62 381.753 121.04C382.014 121.488 382.411 121.712 382.943 121.712C383.419 121.712 383.788 121.488 384.049 121.04ZM390.805 123.112C390.068 123.112 389.433 122.925 388.901 122.552C388.379 122.179 388.01 121.661 387.795 120.998C387.637 120.494 387.557 119.962 387.557 119.402C387.557 118.805 387.632 118.273 387.781 117.806C387.996 117.153 388.369 116.644 388.901 116.28C389.433 115.916 390.073 115.734 390.819 115.734C391.529 115.734 392.14 115.916 392.653 116.28C393.176 116.644 393.545 117.148 393.759 117.792C393.927 118.24 394.011 118.772 394.011 119.388C394.011 119.976 393.932 120.508 393.773 120.984C393.559 121.647 393.19 122.169 392.667 122.552C392.145 122.925 391.524 123.112 390.805 123.112ZM390.805 121.712C391.151 121.712 391.445 121.614 391.687 121.418C391.939 121.222 392.121 120.947 392.233 120.592C392.327 120.284 392.373 119.892 392.373 119.416C392.373 118.912 392.327 118.52 392.233 118.24C392.131 117.885 391.953 117.615 391.701 117.428C391.449 117.232 391.141 117.134 390.777 117.134C390.432 117.134 390.133 117.232 389.881 117.428C389.629 117.615 389.447 117.885 389.335 118.24C389.242 118.567 389.195 118.959 389.195 119.416C389.195 119.873 389.242 120.265 389.335 120.592C389.438 120.947 389.615 121.222 389.867 121.418C390.129 121.614 390.441 121.712 390.805 121.712Z" fill="white"/>
<defs>
<filter id="filter0_d_817_68" x="0.640503" y="5.21826" width="125.004" height="124.111" filterUnits="userSpaceOnUse" color-interpolation-filters="sRGB">
<feFlood flood-opacity="0" result="BackgroundImageFix"/>
<feColorMatrix in="SourceAlpha" type="matrix" values="0 0 0 0 0 0 0 0 0 0 0 0 0 0 0 0 0 0 127 0" result="hardAlpha"/>
<feOffset dy="17"/>
<feGaussianBlur stdDeviation="17.5"/>
<feColorMatrix type="matrix" values="0 0 0 0 0 0 0 0 0 0 0 0 0 0 0 0 0 0 0.12 0"/>
<feBlend mode="normal" in2="BackgroundImageFix" result="effect1_dropShadow_817_68"/>
<feBlend mode="normal" in="SourceGraphic" in2="effect1_dropShadow_817_68" result="shape"/>
</filter>
<filter id="filter1_d_817_68" x="155.052" y="5.21826" width="125.004" height="124.111" filterUnits="userSpaceOnUse" color-interpolation-filters="sRGB">
<feFlood flood-opacity="0" result="BackgroundImageFix"/>
<feColorMatrix in="SourceAlpha" type="matrix" values="0 0 0 0 0 0 0 0 0 0 0 0 0 0 0 0 0 0 127 0" result="hardAlpha"/>
<feOffset dy="17"/>
<feGaussianBlur stdDeviation="17.5"/>
<feColorMatrix type="matrix" values="0 0 0 0 0 0 0 0 0 0 0 0 0 0 0 0 0 0 0.12 0"/>
<feBlend mode="normal" in2="BackgroundImageFix" result="effect1_dropShadow_817_68"/>
<feBlend mode="normal" in="SourceGraphic" in2="effect1_dropShadow_817_68" result="shape"/>
</filter>
<filter id="filter2_d_817_68" x="309.464" y="5.21826" width="125.004" height="124.111" filterUnits="userSpaceOnUse" color-interpolation-filters="sRGB">
<feFlood flood-opacity="0" result="BackgroundImageFix"/>
<feColorMatrix in="SourceAlpha" type="matrix" values="0 0 0 0 0 0 0 0 0 0 0 0 0 0 0 0 0 0 127 0" result="hardAlpha"/>
<feOffset dy="17"/>
<feGaussianBlur stdDeviation="17.5"/>
<feColorMatrix type="matrix" values="0 0 0 0 0 0 0 0 0 0 0 0 0 0 0 0 0 0 0.12 0"/>
<feBlend mode="normal" in2="BackgroundImageFix" result="effect1_dropShadow_817_68"/>
<feBlend mode="normal" in="SourceGraphic" in2="effect1_dropShadow_817_68" result="shape"/>
</filter>
</defs>
</svg>
