<svg width="604" height="626" viewBox="0 0 604 626" fill="none" xmlns="http://www.w3.org/2000/svg">
<path d="M16.9999 333C16.9999 333 -0.00011158 106.5 7.49989 92C14.9999 77.5 302 5.5 302 5.5C302 5.5 586.5 78.5 595.5 92C604.5 105.5 592.5 295.5 588.5 339C584.5 382.5 492 509 492 509C492 509 343 631.5 302 620C261 608.5 157 556.5 114.5 509C71.9999 461.5 41.4093 407.25 16.9999 333Z" fill="url(#paint0_radial_740_43)" stroke="white" stroke-width="10"/>
<path d="M51.0991 329.697C51.0991 329.697 36.0531 127.958 42.691 115.044C49.329 102.129 303.34 38 303.34 38C303.34 38 555.139 103.019 563.105 115.044C571.071 127.068 560.45 296.297 556.909 335.041C553.369 373.785 471.501 486.456 471.501 486.456C471.501 486.456 339.628 595.564 303.34 585.321C267.053 575.079 175.007 528.763 137.392 486.456C99.7773 444.149 72.7029 395.83 51.0991 329.697Z" stroke="white" stroke-width="10"/>
<path d="M201.5 434V536.5L236 555.5V470L272.5 495V574L304 587.5V504.5L338 490V576.5L370 559V467L400.5 439.5V540L438.5 513V470M438.5 404V470M438.5 470C438.5 470 443.5 472.5 455.25 478C467 483.5 472 486 472 486L498.5 449.5C498.5 449.5 467 459.5 464 449.5C462.57 444.734 462.503 428.836 462.825 413.5M537 327V387.5L514 425C514 425 503.5 425.5 498.5 413.5C493.5 401.5 498.5 346 498.5 346L464 380.5C464 380.5 463.178 396.661 462.825 413.5M462.825 413.5L496 446" stroke="white" stroke-width="7"/>
<path d="M44.5 168C58.1 169.2 129 163 152 168C175 173 166.5 201.5 175.5 223C184.5 244.5 213 253.5 213 253.5" stroke="white" stroke-width="7"/>
<path d="M48 196.5C48 196.5 150 187 146 193.5C142 200 146 226.5 146 226.5" stroke="white" stroke-width="7"/>
<path d="M171.5 405L172.75 459M174 513L172.75 459M172.75 459C143 493.5 140 489.5 140 489.5" stroke="white" stroke-width="7"/>
<path d="M139 428.5C139 406.5 141.5 470.5 126 471" stroke="white" stroke-width="7"/>
<path d="M302.001 45.5V81M302.001 81C302.001 81 248.5 166.5 227.5 205.5C206.5 244.5 216 271.5 223 293.5C230.001 315.5 254.5 343 304.5 343C354.5 343 376.5 301 386.5 268.5C396.5 236 370 184.5 370 184.5L302.001 81Z" stroke="white" stroke-width="7"/>
<path d="M102.5 342C102.5 342 104.5 407 102.5 417C100.5 427 97.9999 427 97.9999 427M72.4999 330.5C72.0999 332.9 72.3332 369.833 72.4999 388" stroke="white" stroke-width="7"/>
<path d="M138 369.5C138 369.5 142 416 138 428C134 440 110 448.5 110 448.5" stroke="white" stroke-width="7"/>
<path d="M43.5 136.5C43.5 136.5 160.5 130.5 170.5 140.5C180.5 150.5 177 225 177 225" stroke="white" stroke-width="7"/>
<path d="M57.5 109C65.1 109 169 105.5 189 109C209 112.5 201 201.5 205.5 211C210 220.5 218.5 220.5 218.5 220.5" stroke="white" stroke-width="7"/>
<path d="M208.5 64.5V216" stroke="white" stroke-width="7"/>
<path d="M237 57C237 61.5705 237 148.238 237 191" stroke="white" stroke-width="7"/>
<path d="M266 48.5C266 48.5 266 147 266 140.5" stroke="white" stroke-width="7"/>
<path d="M48.5 239C48.5 239 51 225.5 107 239C163 252.5 253.5 412.5 309.5 395.5C365.5 378.5 440 272 482 247.5C520.059 225.299 554.833 232.659 561.024 234.235L560.054 264.802L559 298V329.5C559 329.5 532 319 507 338C482 357 344.5 511 295.5 504C246.5 497 132 352.5 98.5 338C65 323.5 52 329.5 52 329.5L48.5 298V265V239Z" fill="#599052"/>
<path d="M40.5 203.5C40.5 203.5 58.5 197.5 98.5 203.5C138.5 209.5 191.5 270 214 298C236.5 326 257 358.5 298 365C339 371.5 436.5 245 471 215.5C505.5 186 562 203.5 562 203.5L559 298M562 234.5C562 234.5 524 223 482 247.5C440 272 365.5 378.5 309.5 395.5C253.5 412.5 163 252.5 107 239C51 225.5 48.5 239 48.5 239V298M48.5 265C48.5 265 81.5 254 127.5 286C173.5 318 244.5 427.5 298 426.5C351.5 425.5 474 286 497 273C520 260 562 265 562 265M48.5 298C48.5 298 62 286 107 307.5C152 329 252.5 478.5 295.5 478C338.5 477.5 471 327.5 497 307.5C523 287.5 559 298 559 298M48.5 298L52 329.5C52 329.5 65 323.5 98.5 338C132 352.5 246.5 497 295.5 504C344.5 511 482 357 507 338C532 319 559 329.5 559 329.5V298" stroke="white" stroke-width="7"/>
<path d="M242.5 445C242.5 445 283 469.5 350.5 445" stroke="white" stroke-width="7"/>
<path d="M566.5 137C566.5 137 467 134 441.5 137C416 140 441.5 208 429 225.5C416.5 243 389 259.5 389 259.5" stroke="white" stroke-width="7"/>
<path d="M335.5 50C335.5 58 335.5 107.333 335.5 131L366.5 179.5V53L402.5 62C402.5 62 401 185.5 402.5 202.5C404 219.5 384 221.5 384 221.5" stroke="white" stroke-width="7"/>
<path d="M401 128.5C401 128.5 410.5 119 427.5 112C444.5 105 557 112 557 112" stroke="white" stroke-width="7"/>
<path d="M431.5 175.5C438.5 163.5 564 171 564 171" stroke="white" stroke-width="7"/>
<path d="M235 242.5C235.5 220 303 115 303 118.5C303 122 366.5 214.5 368 242.5C369.5 270.5 363.5 328 298.5 320C233.5 312 234.5 265 235 242.5Z" fill="url(#paint1_linear_740_43)" stroke="white" stroke-width="7"/>
<ellipse cx="342" cy="233" rx="9" ry="13" transform="rotate(-14.9662 342 233)" fill="#D9D9D9"/>
<defs>
<radialGradient id="paint0_radial_740_43" cx="0" cy="0" r="1" gradientUnits="userSpaceOnUse" gradientTransform="translate(302 256.5) rotate(91.6555) scale(432.681 985.597)">
<stop stop-color="#848585"/>
<stop offset="1" stop-color="#1F1F1F"/>
</radialGradient>
<linearGradient id="paint1_linear_740_43" x1="302" y1="202.5" x2="301.545" y2="320.756" gradientUnits="userSpaceOnUse">
<stop stop-color="#32CFC7"/>
<stop offset="1" stop-color="#193969"/>
</linearGradient>
</defs>
</svg>
